<?xml version="1.0" encoding="utf-8"?>
<!-- Generator: Adobe Illustrator 28.1.0, SVG Export Plug-In . SVG Version: 6.00 Build 0)  -->
<svg version="1.1" id="Layer_1" xmlns="http://www.w3.org/2000/svg" xmlns:xlink="http://www.w3.org/1999/xlink" x="0px" y="0px"
	 viewBox="0 0 175 137" style="enable-background:new 0 0 175 137;" xml:space="preserve">
<style type="text/css">
	.st0{fill:#57493B;}
	.st1{fill:#B94A02;}
	.st2{fill:#E37E3B;}
	.st3{fill:#579BCB;}
	.st4{fill:#8FBD38;}
</style>
<g>
	<g>
		<g>
			<rect x="0.9" y="132.6" class="st0" width="4.4" height="0.8"/>
		</g>
		<g>
			<rect x="169.6" y="132.2" class="st0" width="4.4" height="0.8"/>
		</g>
		<g>
			<path class="st0" d="M16.7,134.6h-2.9l-0.5,1.3h-1.9l3-6.8h1.9l3,6.8h-2L16.7,134.6z M16.2,133.2l-0.9-2.2l-0.9,2.2H16.2z"/>
		</g>
		<g>
			<path class="st1" d="M29.3,130.6v1.5h3v1.5h-3v2.3h-1.9v-6.8h5.3v1.5H29.3L29.3,130.6z"/>
			<path class="st1" d="M39,134.1h-1v1.8h-2v-6.8h3.1c1.8,0,3,1,3,2.5c0,1-0.5,1.7-1.3,2.1l1.5,2.1h-2L39,134.1z M39,130.6h-1.1v2
				H39c0.8,0,1.2-0.4,1.2-1S39.8,130.6,39,130.6z"/>
			<path class="st1" d="M45.5,132.9v-3.8h1.9v3.7c0,1.2,0.5,1.6,1.3,1.6s1.3-0.5,1.3-1.6v-3.7h1.9v3.8c0,2-1.2,3.2-3.2,3.2
				S45.5,134.9,45.5,132.9z"/>
			<path class="st1" d="M56.8,130.7h-2.1v-1.5h6v1.5h-2.1v5.3h-1.9L56.8,130.7L56.8,130.7z"/>
			<path class="st1" d="M63.8,132.9v-3.8h1.9v3.7c0,1.2,0.5,1.6,1.3,1.6s1.3-0.5,1.3-1.6v-3.7h1.9v3.8c0,2-1.2,3.2-3.2,3.2
				S63.8,134.9,63.8,132.9z"/>
			<path class="st1" d="M76.8,134.1h-1v1.8h-1.9v-6.8H77c1.8,0,3,1,3,2.5c0,1-0.5,1.7-1.3,2.1l1.5,2.1h-2L76.8,134.1z M76.8,130.6
				h-1.1v2h1.1c0.8,0,1.2-0.4,1.2-1S77.6,130.6,76.8,130.6z"/>
			<path class="st1" d="M87.9,134.6H85l-0.5,1.3h-1.9l3-6.8h1.9l3,6.8h-2L87.9,134.6z M87.3,133.2l-0.9-2.2l-0.9,2.2H87.3z"/>
		</g>
		<g>
			<path class="st0" d="M98.2,132.5c0-2.1,1.6-3.5,3.7-3.5c1.2,0,2.2,0.4,2.9,1.3l-1.2,1.1c-0.4-0.5-0.9-0.8-1.6-0.8
				c-1.1,0-1.9,0.8-1.9,1.9c0,1.2,0.8,1.9,1.9,1.9c0.7,0,1.2-0.3,1.6-0.8l1.2,1.1c-0.7,0.8-1.7,1.3-2.9,1.3
				C99.8,136.1,98.2,134.6,98.2,132.5z"/>
			<path class="st0" d="M107.6,132.5c0-2,1.6-3.5,3.8-3.5s3.8,1.5,3.8,3.5s-1.6,3.5-3.8,3.5C109.2,136.1,107.6,134.6,107.6,132.5z
				 M113.2,132.5c0-1.2-0.8-1.9-1.8-1.9s-1.8,0.8-1.8,1.9c0,1.2,0.8,1.9,1.8,1.9C112.4,134.5,113.2,133.7,113.2,132.5z"/>
			<path class="st0" d="M124.6,135.9v-3.6l-1.7,2.9H122l-1.7-2.8v3.5h-1.8v-6.8h1.6l2.4,3.9l2.3-3.9h1.6v6.8L124.6,135.9
				L124.6,135.9z"/>
			<path class="st0" d="M136.2,131.6c0,1.5-1.2,2.5-3,2.5H132v1.8h-1.9v-6.8h3.1C135,129.1,136.2,130.1,136.2,131.6z M134.3,131.6
				c0-0.6-0.4-1-1.2-1H132v2h1.1C133.9,132.6,134.3,132.3,134.3,131.6z"/>
			<path class="st0" d="M143.7,134.6h-2.9l-0.5,1.3h-1.9l3-6.8h1.9l3,6.8h-2L143.7,134.6z M143.1,133.2l-0.9-2.2l-0.9,2.2H143.1z"/>
			<path class="st0" d="M155.6,129.1v6.8H154l-3-3.6v3.6h-1.9v-6.8h1.6l3,3.6v-3.6H155.6z"/>
			<path class="st0" d="M162.9,133.5v2.4H161v-2.5l-2.6-4.3h2l1.6,2.7l1.6-2.7h1.9L162.9,133.5z"/>
		</g>
	</g>
	<g>
		<path class="st2" d="M100.6,51.1c0,16.6-13.5,30.1-30.1,30.1S40.3,67.7,40.3,51.1S53.8,21,70.4,21C87.1,21,100.6,34.5,100.6,51.1"
			/>
		<path class="st3" d="M41.1,41c0,22.1-18,40.1-40.1,40.1V0.9C23.1,0.9,41.1,18.9,41.1,41"/>
		<path class="st4" d="M133.9,41c22.2,0,40.1,18,40.1,40.1H93.8C93.8,59,111.8,41,133.9,41"/>
	</g>
	<g>
		<path class="st0" d="M6.3,117.5c4.6,0,7.1-2.2,7.1-7.6c0-5.2-2.5-7.4-7.2-7.4h-3v15C3.2,117.5,6.3,117.5,6.3,117.5z M0.9,100.4H6
			c6.2,0,9.7,3.1,9.7,9.5c0,6.5-3.6,9.6-9.7,9.6H0.9V100.4z"/>
		<path class="st0" d="M32.7,109.9c0-5-2.5-7.9-6-7.9s-6,2.9-6,7.9s2.5,7.9,6,7.9S32.7,114.9,32.7,109.9 M18.4,109.9
			c0-6.2,3.5-9.9,8.3-9.9s8.2,3.8,8.2,9.9c0,6.2-3.5,9.9-8.2,9.9S18.4,116.1,18.4,109.9"/>
		<polygon class="st0" points="38.1,100.4 40.5,100.4 50.6,115.5 50.6,115.5 50.6,100.4 52.8,100.4 52.8,119.5 50.7,119.5 40.3,104 
			40.2,104 40.2,119.5 38.1,119.5 		"/>
		<path class="st0" d="M70.8,109.2c3,0,4.7-0.8,4.7-3.4c0-2.5-1.7-3.4-4.7-3.4h-4.2v6.8C66.6,109.2,70.8,109.2,70.8,109.2z
			 M64.3,100.4h6.6c4.4,0,6.8,1.8,6.8,5.4c0,3.1-1.7,4.7-4.5,5.3l4.7,8.6h-2.5l-4.6-8.3h-4.3v8.3h-2.3v-19.3H64.3z"/>
		<rect x="81.8" y="100.4" class="st0" width="2.3" height="19.2"/>
		<path class="st0" d="M87.3,109.9c0-6,3.3-9.9,8.1-9.9c4.1,0,6.2,2.4,7.1,5.9l-2.2,0.6c-0.8-2.9-2.2-4.4-4.9-4.4
			c-3.6,0-5.8,3-5.8,7.7c0,5.1,2.3,8,5.9,8c2.7,0,4.4-1.5,5.2-4.6l2.2,0.5c-0.9,3.8-3.4,6.2-7.4,6.2
			C90.6,119.9,87.3,116.1,87.3,109.9"/>
		<g>
			<path class="st0" d="M115.3,112l-3.1-9h-0.1l-3.1,9H115.3z M111.1,100.3h2.4l6.8,19.2h-2.4L116,114h-7.6l-1.9,5.5h-2.2
				L111.1,100.3z"/>
		</g>
		<path class="st0" d="M129.3,109.2c3,0,4.7-0.8,4.7-3.4c0-2.5-1.7-3.4-4.7-3.4h-4.2v6.8C125.1,109.2,129.3,109.2,129.3,109.2z
			 M122.9,100.4h6.6c4.4,0,6.8,1.8,6.8,5.4c0,3.1-1.7,4.7-4.5,5.3l4.7,8.6H134l-4.6-8.3h-4.3v8.3h-2.3
			C122.9,119.5,122.9,100.4,122.9,100.4z"/>
		<path class="st0" d="M145.4,117.5c4.6,0,7.1-2.2,7.1-7.6c0-5.2-2.5-7.4-7.2-7.4h-3v15H145.4z M140.1,100.4h5.1
			c6.2,0,9.7,3.1,9.7,9.5c0,6.5-3.6,9.6-9.7,9.6h-5.1V100.4z"/>
		<path class="st0" d="M171.8,109.9c0-5-2.5-7.9-6-7.9s-6,2.9-6,7.9s2.5,7.9,6,7.9S171.8,114.9,171.8,109.9 M157.5,109.9
			c0-6.2,3.6-9.9,8.3-9.9s8.2,3.8,8.2,9.9c0,6.2-3.5,9.9-8.2,9.9S157.5,116.1,157.5,109.9"/>
	</g>
</g>
</svg>
